<svg width="324" height="27" viewBox="0 0 324 27" fill="none" xmlns="http://www.w3.org/2000/svg">
<path d="M159.074 20.162C158.15 20.162 157.31 19.952 156.554 19.532C155.81 19.112 155.222 18.518 154.79 17.75C154.37 16.97 154.16 16.07 154.16 15.05C154.16 14.042 154.376 13.154 154.808 12.386C155.252 11.606 155.852 11.012 156.608 10.604C157.364 10.184 158.21 9.974 159.146 9.974C160.082 9.974 160.928 10.184 161.684 10.604C162.44 11.012 163.034 11.6 163.466 12.368C163.91 13.136 164.132 14.03 164.132 15.05C164.132 16.07 163.904 16.97 163.448 17.75C163.004 18.518 162.398 19.112 161.63 19.532C160.862 19.952 160.01 20.162 159.074 20.162ZM159.074 18.722C159.662 18.722 160.214 18.584 160.73 18.308C161.246 18.032 161.66 17.618 161.972 17.066C162.296 16.514 162.458 15.842 162.458 15.05C162.458 14.258 162.302 13.586 161.99 13.034C161.678 12.482 161.27 12.074 160.766 11.81C160.262 11.534 159.716 11.396 159.128 11.396C158.528 11.396 157.976 11.534 157.472 11.81C156.98 12.074 156.584 12.482 156.284 13.034C155.984 13.586 155.834 14.258 155.834 15.05C155.834 15.854 155.978 16.532 156.266 17.084C156.566 17.636 156.962 18.05 157.454 18.326C157.946 18.59 158.486 18.722 159.074 18.722ZM167.923 11.738C168.211 11.174 168.619 10.736 169.147 10.424C169.687 10.112 170.341 9.956 171.109 9.956V11.648H170.677C168.841 11.648 167.923 12.644 167.923 14.636V20H166.285V10.136H167.923V11.738Z" fill="#F1F1F1"/>
<path d="M0 14L129 14" stroke="#F1F1F1"/>
<path d="M192 14H324" stroke="#F1F1F1"/>
</svg>
